# xmcd
#
# Track frame offsets:
#	150
#	13051
#	25329
#	36983
#	49354
#	62577
#	75765
#	88359
#	99904
#	111805
#	122712
#	133550
#	145962
#	160142
#	170997
#	184166
#	196470
#	207980
#	221022
#	232841
#	245108
#	256761
#	268672
#	278554
#
# Disc length: 3796 seconds
#
# Revision: 1
# Processed by: cddbd v1.5.2PL0 Copyright (c) Steve Scherf et al.
# Submitted via: audiograbber 1.83.01
#
DISCID=5d0ed218
DTITLE=The Greatest Country Music Recordings Of All Time - Records 33 and 34
DYEAR=1900
DGENRE=
TTITLE0=Hank Williams - Calling You (backup vocal by The Willis Brothers)
TTITLE1=Hank Williams - Move It On Over
TTITLE2=Hank Williams - Mansion On The Hill
TTITLE3=Hank Williams - Lovesick Blues
TTITLE4=Hank Williams - Mind Your Own Business
TTITLE5=Hank Williams - Wedding Bells
TTITLE6=Hank Williams - I'm So Lonesome I Could Cry
TTITLE7=Hank Williams - My Bucket's Got A Hole In It
TTITLE8=Hank Williams - Long Gone Lonesome Blues
TTITLE9=Hank Williams - Why Don't You Love Me
TTITLE10=Hank Williams - Moanin' The Blues
TTITLE11=Hank Williams - Cold, Cold Hart
TTITLE12=Hank Williams - Men With Broken Hearts
TTITLE13=Hank Williams - I Can't Help It (If I'm Still In Love With You)
TTITLE14=Hank Williams - Hey, Good Lookin'
TTITLE15=Hank Williams - Half As Much
TTITLE16=Hank Williams - Baby We're Really In Love
TTITLE17=Hank Williams - Jambalaya (On The Bayou)
TTITLE18=Hank Williams - You Win Again
TTITLE19=Hank Williams - Your Cheatin' Heart
TTITLE20=Hank Williams - Kaw-Liga
TTITLE21=Hank Williams - Take These Chains From My Heart
TTITLE22=Hank Williams - No Not Now (backup vocal by Curly Williams)
TTITLE23=Hank Williams - Fool About You
EXTD=
EXTT0=
EXTT1=
EXTT2=
EXTT3=
EXTT4=
EXTT5=
EXTT6=
EXTT7=
EXTT8=
EXTT9=
EXTT10=
EXTT11=
EXTT12=
EXTT13=
EXTT14=
EXTT15=
EXTT16=
EXTT17=
EXTT18=
EXTT19=
EXTT20=
EXTT21=
EXTT22=
EXTT23=
PLAYORDER=
